#!OML:ASF I:\Actors\actors\Patient Classification 2\Patient 1\Session 1\actor1.ASF
:FULLY-SPECIFIED
:DEGREES
254
root -0.852199 18.6272 4.58043 0.580765 -2.36995 -3.49118
lowerback 18.9955 1.3284 -0.85678
upperback 1.56012 1.60289 0.400309
thorax -8.99798 0.805201 0.500734
lowerneck -2.66184 -2.92019 1.95303
upperneck -5.90335 -3.85543 1.81611
head -1.37434 -1.99386 0.253463
rclavicle 3.77691e-015 1.59028e-015
rhumerus 19.2181 4.95353 -33.0288
rradius 135.77
rwrist -28.1326
rhand -10.8978 -40.0984
rfingers 7.12502
rthumb 15.119 -69.5262
lclavicle 3.77691e-015 1.59028e-015
lhumerus -46.0281 -5.8499 84.1173
lradius 59.0858
lwrist 5.44222
lhand -12.3532 -27.0247
lfingers 7.12502
lthumb 13.7166 2.50322
rfemur 0 0 0
rtibia 0
rfoot 0 0
rtoes 0
lfemur -11.2022 -0.60862 -9.53009
ltibia 27.6133
lfoot -19.8184 9.29619
ltoes -56.6518
255
root -0.849924 18.6263 4.59147 0.650453 -2.31843 -3.48636
lowerback 19.3286 1.32021 -0.564563
upperback 1.20895 1.63541 0.217975
thorax -9.5558 0.805001 0.11603
lowerneck -2.66397 -3.03521 1.96124
upperneck -5.83815 -4.001 2.0339
head -1.34914 -2.06866 0.31863
rclavicle -8.64713e-015 -2.38542e-015
rhumerus 18.8198 4.79535 -33.0799
rradius 135.809
rwrist -28.1583
rhand -10.9798 -39.9705
rfingers 7.12502
rthumb 15.0399 -69.4043
lclavicle -8.64713e-015 -2.38542e-015
lhumerus -46.4835 -6.18475 83.9808
lradius 58.7822
lwrist 6.03213
lhand -12.5462 -28.6476
lfingers 7.12502
lthumb 13.5306 0.892762
rfemur 0 0 0
rtibia 0
rfoot 0 0
rtoes 0
lfemur -11.2886 -0.670432 -9.54578
ltibia 27.6801
lfoot -19.8648 9.29819
ltoes -56.6156
256
root -0.848926 18.6254 4.60524 0.722452 -2.28862 -3.49913
lowerback 19.4053 1.32106 -0.426716
upperback 1.02469 1.65859 0.135983
thorax -9.79601 0.807654 -0.0625255
lowerneck -2.76359 -3.08354 1.92556
upperneck -5.882 -4.06079 2.17667
head -1.34234 -2.09967 0.367161
rclavicle 1.48095e-014 6.75868e-015
rhumerus 18.7423 4.55837 -33.0344
rradius 135.789
rwrist -28.1247
rhand -11.1377 -39.8967
rfingers 7.12502
rthumb 14.8879 -69.3417
lclavicle 1.48095e-014 6.75868e-015
lhumerus -46.6979 -6.30856 83.89
lradius 59.1513
lwrist 5.46734
lhand -12.3368 -27.029
lfingers 7.12502
lthumb 13.7324 2.49785
rfemur 0 0 0
rtibia 0
rfoot 0 0
rtoes 0
lfemur -11.3612 -0.699981 -9.53792
ltibia 27.7501
lfoot -19.9282 9.29285
ltoes -56.5651
257
root -0.847868 18.624 4.62087 0.771901 -2.29041 -3.57189
lowerback 19.3702 1.31661 -0.326398
upperback 0.919175 1.67546 0.136118
thorax -9.89073 0.811053 -0.124902
lowerneck -2.78343 -3.1015 1.89685
upperneck -6.07505 -4.08069 2.17884
head -1.39936 -2.1115 0.374898
rclavicle 4.18442e-014 -7.15625e-015
rhumerus 18.8715 4.33672 -32.924
rradius 135.779
rwrist -28.0897
rhand -11.0979 -40.0579
rfingers 7.12502
rthumb 14.9262 -69.5001
lclavicle 4.18442e-014 -7.15625e-015
lhumerus -46.7997 -6.20592 83.8131
lradius 59.2253
lwrist 5.20091
lhand -12.2671 -26.4231
lfingers 7.12502
lthumb 13.7996 3.09918
rfemur 0 0 0
rtibia 0
rfoot 0 0
rtoes 0
lfemur -11.3965 -0.625213 -9.46067
ltibia 27.8179
lfoot -19.9694 9.24032
ltoes -56.6217
258
root -0.845675 18.624 4.63705 0.803634 -2.289 -3.61626
lowerback 19.3063 1.3168 -0.271196
upperback 0.848088 1.69085 0.158443
thorax -9.9332 0.816462 -0.135778
lowerneck -2.7982 -3.13229 1.85191
upperneck -6.33608 -4.11792 2.14122
head -1.47944 -2.13195 0.374261
rclavicle 1.19271e-014 1.03368e-014
rhumerus 19.0498 4.11916 -32.7755
rradius 135.752
rwrist -28.0692
rhand -11.0581 -40.1276
rfingers 7.12502
rthumb 14.9645 -69.5669
lclavicle 1.19271e-014 1.03368e-014
lhumerus -46.8291 -6.01446 83.7679
lradius 59.144
lwrist 5.12514
lhand -12.2838 -26.41
lfingers 7.12502
lthumb 13.7835 3.1134
rfemur 0 0 0
rtibia 0
rfoot 0 0
rtoes 0
lfemur -11.4206 -0.548367 -9.42011
ltibia 27.8914
lfoot -19.9963 9.19179
ltoes -56.7154
259
root -0.843121 18.6235 4.65306 0.816579 -2.26912 -3.68977
lowerback 19.2539 1.32958 -0.170407
upperback 0.813229 1.73193 0.174897
thorax -9.94028 0.831801 -0.185745
lowerneck -2.97128 -3.16703 1.85014
upperneck -6.5275 -4.16634 2.11187
head -1.51139 -2.1572 0.365165
rclavicle 2.3556e-014 -4.37326e-015
rhumerus 19.1961 3.87985 -32.6043
rradius 135.691
rwrist -27.8719
rhand -11.2208 -40.1505
rfingers 7.12502
rthumb 14.8078 -69.6015
lclavicle 2.3556e-014 -4.37326e-015
lhumerus -46.7542 -5.90692 83.7351
lradius 58.8898
lwrist 5.25832
lhand -12.3209 -27.0117
lfingers 7.12502
lthumb 13.7477 2.51414
rfemur 0 0 0
rtibia 0
rfoot 0 0
rtoes 0
lfemur -11.4243 -0.498616 -9.34754
ltibia 27.9634
lfoot -20.0134 9.12917
ltoes -56.7875
260
root -0.840596 18.6214 4.6676 0.8055 -2.24008 -3.78696
lowerback 19.2916 1.33038 -0.0394867
upperback 0.749216 1.76297 0.183124
thorax -10.0287 0.840183 -0.261668
lowerneck -3.10451 -3.17674 1.9219
upperneck -6.70832 -4.1847 2.0168
head -1.54997 -2.16816 0.324303
rclavicle 5.46658e-015 -1.47101e-014
rhumerus 19.269 3.78137 -32.4673
rradius 135.628
rwrist -27.4328
rhand -11.5682 -40.12
rfingers 7.12502
rthumb 14.473 -69.5952
lclavicle 5.46658e-015 -1.47101e-014
lhumerus -46.7458 -5.84456 83.6795
lradius 58.3771
lwrist 5.69824
lhand -12.4652 -28.6627
lfingers 7.12502
lthumb 13.6087 0.872531
rfemur 0 0 0
rtibia 0
rfoot 0 0
rtoes 0
lfemur -11.3947 -0.515887 -9.25283
ltibia 28.0181
lfoot -20.0382 9.12619
ltoes -56.8726
261
root -0.838636 18.6204 4.68288 0.8016 -2.22748 -3.79529
lowerback 19.3164 1.32234 -0.0327479
upperback 0.660364 1.75529 0.190259
thorax -10.1415 0.835879 -0.257566
lowerneck -3.15831 -3.14928 1.93746
upperneck -6.90286 -4.15215 1.88729
head -1.60611 -2.15236 0.283419
rclavicle -6.85807e-015 3.97569e-015
rhumerus 19.4019 3.69721 -32.3553
rradius 135.576
rwrist -27.1846
rhand -11.8164 -39.9174
rfingers 7.12502
rthumb 14.234 -69.4097
lclavicle -6.85807e-015 3.97569e-015
lhumerus -46.8577 -5.71565 83.658
lradius 58.3366
lwrist 5.63517
lhand -12.5098 -28.5679
lfingers 7.12502
lthumb 13.5657 0.970152
rfemur 0 0 0
rtibia 0
rfoot 0 0
rtoes 0
lfemur -11.3638 -0.523378 -9.2587
ltibia 28.064
lfoot -20.0875 9.14852
ltoes -56.9094
262
root -0.837116 18.6202 4.69984 0.804544 -2.24122 -3.76907
lowerback 19.1794 1.32346 -0.184599
upperback 0.721401 1.73012 0.256008
thorax -10.0038 0.833816 -0.0882535
lowerneck -3.55006 -3.07392 1.83173
upperneck -7.05632 -4.05821 1.86091
head -1.58646 -2.10257 0.286918
rclavicle 1.50082e-014 -3.18055e-015
rhumerus 19.9305 3.28618 -32.212
rradius 135.477
rwrist -27.3395
rhand -11.7937 -39.8527
rfingers 7.12502
rthumb 14.2558 -69.3434
lclavicle 1.50082e-014 -3.18055e-015
lhumerus -46.7391 -5.454 83.6537
lradius 58.3319
lwrist 5.59874
lhand -12.4647 -28.5318
lfingers 7.12502
lthumb 13.6092 1.00339
rfemur 0 0 0
rtibia 0
rfoot 0 0
rtoes 0
lfemur -11.331 -0.467524 -9.29737
ltibia 28.1065
lfoot -20.1279 9.1383
ltoes -56.9534
263
root -0.835243 18.6206 4.71504 0.820214 -2.21889 -3.80119
lowerback 18.781 1.30224 -0.454552
upperback 1.02708 1.66262 0.445851
thorax -9.45708 0.820361 0.303203
lowerneck -4.24943 -2.96117 1.69384
upperneck -7.32944 -3.91858 1.82805
head -1.55259 -2.02922 0.289924
rclavicle 1.5207e-014 0
rhumerus 20.9625 2.60753 -32.0168
rradius 135.271
rwrist -27.5198
rhand -11.9366 -39.8398
rfingers 7.12502
rthumb 14.1181 -69.3402
lclavicle 1.5207e-014 0
lhumerus -46.1903 -5.04224 83.6985
lradius 58.2521
lwrist 5.63365
lhand -12.4413 -28.5397
lfingers 7.12502
lthumb 13.6317 0.99395
rfemur 0 0 0
rtibia 0
rfoot 0 0
rtoes 0
lfemur -11.3262 -0.41928 -9.2652
ltibia 28.1428
lfoot -20.0933 9.10987
ltoes -57.0806
264
root -0.833821 18.6205 4.72957 0.871538 -2.19228 -3.83508
lowerback 19.0701 1.2973 -0.177881
upperback 0.762614 1.70114 0.295434
thorax -9.89803 0.821378 -0.0380689
lowerneck -4.56686 -3.0505 1.72733
upperneck -7.22253 -4.04323 1.92034
head -1.46379 -2.09064 0.305761
rclavicle -2.24627e-014 1.27222e-014
rhumerus 20.0625 2.78025 -32.2229
rradius 135.987
rwrist -27.0541
rhand -12.4042 -39.6155
rfingers 7.12502
rthumb 13.6675 -69.1468
lclavicle -2.24627e-014 1.27222e-014
lhumerus -46.5118 -5.44886 83.5839
lradius 58.5297
lwrist 5.42443
lhand -12.3537 -27.4203
lfingers 7.12502
lthumb 13.7161 2.10766
rfemur 0 0 0
rtibia 0
rfoot 0 0
rtoes 0
lfemur -11.3681 -0.390109 -9.22931
ltibia 28.1859
lfoot -20.0718 9.08675
ltoes -57.1305
265
root -0.833131 18.6187 4.74579 0.894433 -2.20428 -3.82746
lowerback 19.1816 1.32175 -0.0852169
upperback 0.406971 1.74546 0.19353
thorax -10.35 0.833321 -0.222117
lowerneck -3.76912 -3.14221 1.75864
upperneck -7.58992 -4.13615 2.00093
head -1.71544 -2.14693 0.345678
rclavicle 7.15625e-015 7.95139e-015
rhumerus 18.7636 3.26076 -32.4084
rradius 137.013
rwrist -26.5687
rhand -12.6519 -39.4811
rfingers 7.12502
rthumb 13.4287 -69.0282
lclavicle 7.15625e-015 7.95139e-015
lhumerus -47.1361 -5.67072 83.5056
lradius 58.3147
lwrist 5.81108
lhand -12.4207 -28.6353
lfingers 7.12502
lthumb 13.6515 0.897048
rfemur 0 0 0
rtibia 0
rfoot 0 0
rtoes 0
lfemur -11.3708 -0.379115 -9.23938
ltibia 28.2465
lfoot -20.1322 9.06419
ltoes -57.0113
